<svg width="28" height="28" viewBox="0 0 28 28" fill="none" xmlns="http://www.w3.org/2000/svg">
<path fill-rule="evenodd" clip-rule="evenodd" d="M13.7547 7.15355e-08H14.2453C16.4472 -5.17367e-06 18.161 -9.34303e-06 19.5358 0.112315C20.9317 0.226361 22.0658 0.461167 23.0859 0.980941C24.7794 1.8438 26.1562 3.22063 27.0191 4.91409C27.5388 5.9342 27.7736 7.06833 27.8877 8.46418C28 9.83896 28 11.5528 28 13.7547V14.2453C28 16.4472 28 18.161 27.8877 19.5358C27.7736 20.9317 27.5388 22.0658 27.0191 23.0859C26.1562 24.7794 24.7794 26.1562 23.0859 27.0191C22.0658 27.5388 20.9317 27.7736 19.5358 27.8877C18.161 28 16.4472 28 14.2453 28H13.7547C11.5528 28 9.83896 28 8.46418 27.8877C7.06833 27.7736 5.9342 27.5388 4.91409 27.0191C3.22063 26.1562 1.8438 24.7794 0.980941 23.0859C0.461167 22.0658 0.226361 20.9317 0.112315 19.5358C-9.34303e-06 18.161 -5.17367e-06 16.4472 7.15355e-08 14.2453V13.7547C-5.17367e-06 11.5528 -9.34303e-06 9.83896 0.112315 8.46418C0.226361 7.06833 0.461167 5.9342 0.980941 4.91409C1.8438 3.22063 3.22063 1.8438 4.91409 0.980941C5.9342 0.461167 7.06833 0.226361 8.46418 0.112315C9.83896 -9.34303e-06 11.5528 -5.17367e-06 13.7547 7.15355e-08ZM8.62705 2.10567C7.35487 2.20961 6.51325 2.41078 5.82207 2.76295C4.50493 3.43407 3.43407 4.50493 2.76295 5.82207C2.41078 6.51325 2.20961 7.35487 2.10567 8.62705C2.00078 9.9109 2 11.5433 2 13.8V14.2C2 16.4567 2.00078 18.0891 2.10567 19.373C2.20961 20.6451 2.41078 21.4868 2.76295 22.1779C3.43407 23.4951 4.50493 24.5659 5.82207 25.237C6.51325 25.5892 7.35487 25.7904 8.62705 25.8943C9.9109 25.9992 11.5433 26 13.8 26H14.2C16.4567 26 18.0891 25.9992 19.373 25.8943C20.6451 25.7904 21.4868 25.5892 22.1779 25.237C23.4951 24.5659 24.5659 23.4951 25.237 22.1779C25.5892 21.4868 25.7904 20.6451 25.8943 19.373C25.9992 18.0891 26 16.4567 26 14.2V13.8C26 11.5433 25.9992 9.9109 25.8943 8.62705C25.7904 7.35487 25.5892 6.51325 25.237 5.82207C24.5659 4.50493 23.4951 3.43407 22.1779 2.76295C21.4868 2.41078 20.6451 2.20961 19.373 2.10567C18.0891 2.00078 16.4567 2 14.2 2H13.8C11.5433 2 9.9109 2.00078 8.62705 2.10567Z" fill="#E1E3E6"/>
</svg>
